<svg width="150" height="72" viewBox="0 0 150 72" fill="none" xmlns="http://www.w3.org/2000/svg">
<path d="M57.2934 16.718C57.2301 16.7138 57.1669 16.7096 57.1037 16.7096C57.0973 16.7096 57.091 16.7096 57.0847 16.7096V16.7053L50.6877 4.06849C50.6603 4.01562 50.6287 3.9691 50.595 3.9247C50.6287 3.9691 50.6603 4.01774 50.6877 4.06849L51.1599 5.00314C52.0746 4.08752 52.2559 2.59461 51.5161 1.40621C50.9533 0.50116 49.9964 0 49.0331 0C48.5463 0 48.0573 0.128991 47.6146 0.397545L47.5556 0.433493C46.2783 1.25819 45.9095 2.99004 46.7168 4.3455L46.7779 4.44277C47.3449 5.3161 48.2849 5.80035 49.2313 5.80035C49.3008 5.80035 49.3725 5.79823 49.4421 5.79189L49.0036 4.9249L55.3542 17.475C55.0065 17.8493 54.7767 18.3378 54.7261 18.8855L54.7219 18.9532C54.6692 19.7588 55.0233 20.4989 55.6051 20.9726L55.5144 21.1164L55.3542 21.3744L49.0247 31.5202C48.7486 31.9643 48.8814 32.5479 49.324 32.8249C49.48 32.9222 49.6528 32.9687 49.8236 32.9687C50.1376 32.9687 50.4453 32.8122 50.6245 32.5247L57.4789 21.5393L57.5231 21.4674C58.5728 21.2834 59.4053 20.4059 59.4917 19.2915C59.595 17.9699 58.6107 16.8174 57.2934 16.7138V16.718ZM50.5655 3.88875C50.536 3.8528 50.5044 3.82108 50.4706 3.79148C50.5044 3.82108 50.536 3.85491 50.5655 3.88875ZM49.9437 3.55887C49.8952 3.55464 49.8446 3.55253 49.7962 3.55464C49.813 3.55464 49.8278 3.55253 49.8446 3.55253C49.8784 3.55253 49.9121 3.55676 49.9437 3.55887ZM50.4474 3.77033C50.4053 3.7365 50.361 3.70478 50.3147 3.67729C50.361 3.70478 50.4053 3.73438 50.4474 3.77033ZM50.2809 3.66037C50.243 3.64134 50.2029 3.62231 50.1629 3.60751C50.2029 3.62231 50.243 3.63923 50.2809 3.66037ZM50.1229 3.59482C50.0723 3.58002 50.0196 3.56733 49.9669 3.55887C50.0196 3.56521 50.0723 3.5779 50.1229 3.59482Z" fill="white"/>
<path d="M110.952 30.2557C108.659 28.1326 105.358 27.0711 101.046 27.0711C98.5354 27.0711 96.1642 27.4179 93.9321 28.1073C91.6979 28.7945 89.7778 29.7884 88.1717 31.0846L90.526 35.3307C91.7401 34.3094 93.2281 33.4931 94.9923 32.8862C96.7586 32.2751 98.5607 31.9706 100.403 31.9706C103.145 31.9706 105.221 32.6198 106.633 33.9182C108.043 35.2123 108.75 37.0795 108.75 39.5176V40.6405H99.8127C95.4623 40.6405 92.2881 41.4757 90.2879 43.1463C88.2876 44.8189 87.2886 47.0287 87.2886 49.7819C87.2886 52.5351 88.3361 54.7554 90.4333 56.4471C92.5326 58.1367 95.3253 58.9804 98.8115 58.9804C101.202 58.9804 103.272 58.5977 105.017 57.8301C106.762 57.0646 108.102 55.9523 109.042 54.4996V58.6273H114.392V39.7545C114.392 35.5464 113.245 32.3787 110.954 30.2557H110.952ZM108.747 49.0714C108.041 50.8434 106.903 52.2095 105.335 53.1737C103.769 54.138 101.908 54.618 99.7537 54.618C97.5996 54.618 95.9092 54.1655 94.6951 53.2604C93.4811 52.3554 92.8719 51.1162 92.8719 49.5429C92.8719 46.3182 95.2621 44.7047 100.047 44.7047H108.745V49.0714H108.747Z" fill="white"/>
<path d="M144.358 14.8635V32.0848C143.103 30.4354 141.535 29.1857 139.655 28.3399C137.773 27.494 135.714 27.0711 133.482 27.0711C130.463 27.0711 127.757 27.7414 125.367 29.08C122.979 30.4164 121.107 32.2857 119.756 34.6837C118.403 37.0795 117.728 39.8517 117.728 42.9962C117.728 46.1406 118.405 48.9255 119.756 51.3446C121.109 53.7616 122.979 55.6393 125.367 56.9737C127.757 58.3101 130.463 58.9783 133.482 58.9783C135.794 58.9783 137.91 58.5258 139.83 57.6207C141.75 56.7157 143.34 55.3983 144.594 53.6685V58.6252H150V14.8635H144.358ZM143.061 48.75C142.161 50.4184 140.909 51.7146 139.303 52.6408C137.697 53.567 135.912 54.028 133.95 54.028C131.987 54.028 130.16 53.5649 128.571 52.6408C126.984 51.7146 125.729 50.4184 124.808 48.75C123.887 47.0794 123.43 45.1615 123.43 42.9962C123.43 40.8308 123.889 38.9192 124.808 37.2466C125.732 35.576 126.984 34.2882 128.571 33.3832C130.16 32.4781 131.954 32.0256 133.95 32.0256C135.946 32.0256 137.695 32.4781 139.303 33.3832C140.909 34.2882 142.163 35.576 143.061 37.2466C143.963 38.9192 144.415 40.835 144.415 42.9962C144.415 45.1573 143.963 47.0794 143.061 48.75Z" fill="white"/>
<path d="M66.3377 33.3493C67.9627 32.4443 69.7943 31.9918 71.8304 31.9918C73.5925 31.9918 75.1965 32.3661 76.6424 33.1146C78.0925 33.8611 79.3066 34.9797 80.2867 36.4726L84.5717 33.7025C83.3597 31.5435 81.6461 29.8941 79.433 28.7543C77.2199 27.6146 74.7033 27.0457 71.8852 27.0457C68.7152 27.0457 65.8845 27.7245 63.3974 29.08C60.9123 30.4354 58.9627 32.3195 57.5526 34.7365C56.1446 37.1514 55.4407 39.8898 55.4407 42.9517C55.4407 46.0137 56.1446 48.7605 57.5526 51.1775C58.9627 53.5924 60.9123 55.4871 63.3974 56.8616C65.8845 58.2361 68.7152 58.9233 71.8852 58.9233C74.7054 58.9233 77.2199 58.3439 79.433 57.1872C81.6461 56.0284 83.3576 54.3663 84.5717 52.2052L80.2867 49.4964C79.3045 50.9893 78.0904 52.1101 76.6424 52.8586C75.1965 53.6051 73.5925 53.9773 71.8304 53.9773C69.7922 53.9773 67.9627 53.5269 66.3377 52.6197C64.7126 51.7146 63.4395 50.429 62.5185 48.7605C61.5995 47.09 61.14 45.1552 61.14 42.9539C61.14 40.7526 61.5995 38.8833 62.5185 37.2127C63.4416 35.5422 64.7147 34.2544 66.3377 33.3493Z" fill="white"/>
<path d="M32.538 28.0417H32.5254C32.0469 28.0459 31.6296 28.3991 31.5537 28.877C31.5453 28.9298 31.5411 28.9827 31.5411 29.0334V29.044C31.5432 29.5473 31.9247 29.9787 32.4368 30.0294C32.4706 30.0337 32.5022 30.0337 32.5359 30.0337C32.6792 30.0337 32.8162 30.0019 32.9427 29.947C33.4464 29.7186 33.9881 29.5875 34.5361 29.5875C34.6479 29.5875 34.7596 29.5938 34.8713 29.6044L37.5797 29.8751C38.3975 29.9575 39.1563 30.317 39.7718 30.8668C39.9762 31.0508 40.2418 31.1734 40.5369 31.203C40.579 31.2073 40.6191 31.2094 40.6612 31.2094H40.6844C41.3989 31.203 42.006 30.6342 42.027 29.8877C42.046 29.2238 41.5739 28.6359 40.9247 28.5154C40.8383 28.4985 40.754 28.4921 40.6697 28.4921C40.423 28.4921 40.1912 28.5598 39.9889 28.6782C39.3818 29.0356 38.6989 29.2364 38.0034 29.2364C37.8853 29.2364 37.7652 29.2301 37.6472 29.2195L34.9092 28.9467C34.26 28.8812 33.6488 28.6232 33.1219 28.2384C32.9722 28.1284 32.7867 28.0586 32.5865 28.048C32.5717 28.048 32.5591 28.048 32.5443 28.048" fill="white"/>
<path d="M48.8856 31.9241V31.9262C49.4969 32.032 50.0428 32.3111 50.4812 32.7065C50.5339 32.6536 50.5823 32.5944 50.6245 32.5289L50.8374 32.1863L48.8856 31.922" fill="white"/>
<path d="M48.8856 31.9262C48.8477 32.2751 49.0079 32.6304 49.324 32.8292C49.48 32.9264 49.6528 32.9729 49.8236 32.9729C50.0659 32.9729 50.3041 32.8799 50.4812 32.7065C50.0406 32.309 49.4969 32.032 48.8856 31.9262Z" fill="white"/>
<path d="M41.3104 52.2581C41.1692 52.22 41.028 52.1947 40.8868 52.182L37.6198 45.705C37.5924 45.6521 37.5607 45.6056 37.527 45.559C37.5607 45.6034 37.5924 45.6521 37.6198 45.705L38.6778 47.8005C39.0003 47.3522 39.1226 46.7496 38.9603 46.1575C38.7284 45.3074 37.9802 44.7428 37.1771 44.7428C37.0422 44.7428 36.9052 44.7597 36.7703 44.7914L36.6713 44.8189C35.7565 45.1023 35.2296 46.0919 35.4741 47.0731L35.4973 47.1619C35.7059 47.8576 36.2582 48.3524 36.8989 48.492L38.9455 52.5499L39.0741 52.8037C38.7137 53.123 38.4355 53.5501 38.29 54.0513L38.2668 54.1401C38.0645 54.9309 38.2352 55.7282 38.6652 56.3245L38.3933 56.796L32.1797 67.5361C32.1607 67.5678 32.1502 67.6016 32.1354 67.6333C32.1481 67.6037 32.1586 67.572 32.1755 67.5424C31.4652 67.6249 30.7949 68.0605 30.4303 68.7647C29.857 69.8685 30.2448 71.2113 31.3008 71.7632C31.6085 71.9239 31.9373 72 32.264 72C33.0502 72 33.8216 71.5602 34.2326 70.7989L34.2685 70.7312C34.6984 69.8706 34.5509 68.8746 33.965 68.2191L33.8111 68.4855L40.2755 57.3141L40.2882 57.293C40.3851 57.3056 40.48 57.312 40.5769 57.312C41.654 57.312 42.6551 56.5634 42.984 55.43L43.005 55.3539C43.3549 53.9942 42.6067 52.6155 41.3167 52.2602L41.3104 52.2581ZM37.4954 45.5231C37.4659 45.4871 37.4343 45.4554 37.4006 45.4237C37.4343 45.4533 37.4659 45.4871 37.4954 45.5231ZM36.7703 45.1826C36.8041 45.1826 36.8399 45.1869 36.8736 45.189C36.8251 45.1826 36.7746 45.1826 36.724 45.1848C36.7387 45.1848 36.7556 45.1826 36.7703 45.1826ZM37.0507 45.2271C37.0001 45.2101 36.9474 45.1996 36.8926 45.1911C36.9453 45.1974 36.998 45.2101 37.0507 45.2271ZM36.6924 45.1869C36.6397 45.1911 36.5849 45.1996 36.5322 45.2144C36.5849 45.1996 36.6376 45.1911 36.6924 45.1869ZM32.0553 67.8934C32.0511 67.9273 32.0532 67.959 32.0532 67.9928C32.0532 67.959 32.0532 67.9273 32.0553 67.8934ZM32.0511 68.0774C32.0532 68.1113 32.0617 68.143 32.068 68.1747C32.0617 68.143 32.0532 68.1091 32.0511 68.0774ZM32.1144 68.3481C32.1017 68.3164 32.0891 68.2868 32.0806 68.255C32.0891 68.2868 32.1038 68.3185 32.1144 68.3481ZM32.3631 68.716C32.4094 68.7583 32.4621 68.7964 32.5169 68.8281C32.46 68.7964 32.4094 68.7583 32.3631 68.716Z" fill="white"/>
<path d="M9.02622 66.4745L9.01779 67.2823L9.27072 67.7412C9.58056 67.1576 10.1307 66.722 10.7862 66.5655L10.7482 66.4957L9.02833 66.4767" fill="white"/>
<path d="M10.7862 66.5655C10.1286 66.722 9.57845 67.1576 9.27072 67.7412L10.782 70.4775C10.9548 70.7904 11.2773 70.9681 11.6124 70.9681C11.7684 70.9681 11.9244 70.93 12.0698 70.8497C12.5272 70.5959 12.6937 70.0165 12.4386 69.5576L10.7862 66.5655Z" fill="white"/>
<path d="M47.4608 16.0604H47.446C47.1109 16.0604 46.8053 16.1809 46.5629 16.3755C45.8968 16.9168 45.0896 17.253 44.2338 17.2974L41.3694 17.4454C41.3104 17.4476 41.2514 17.4497 41.1924 17.4497C40.5727 17.4497 39.9678 17.2826 39.4177 16.995C39.2743 16.921 39.112 16.8787 38.9413 16.8787C38.9055 16.8787 38.8718 16.8787 38.8359 16.8851C38.3174 16.9379 37.9127 17.382 37.9064 17.9043V17.9276C37.9127 18.5027 38.3786 18.9553 38.9392 18.9553C38.9582 18.9553 38.975 18.9553 38.994 18.9553C39.1816 18.9447 39.3544 18.8876 39.502 18.7903C40.0858 18.4118 40.7434 18.1708 41.4369 18.1369L44.2697 17.9889C44.3329 17.9847 44.3982 17.9847 44.4615 17.9847C45.2498 17.9847 46.017 18.2321 46.6809 18.6677C46.9043 18.8136 47.1678 18.8961 47.4502 18.8961C47.4734 18.8961 47.4987 18.8961 47.5219 18.8961C48.2723 18.8559 48.8582 18.2342 48.8603 17.4899V17.4772C48.8603 17.4222 48.8561 17.3651 48.8498 17.308C48.7676 16.6208 48.188 16.0879 47.5008 16.0646C47.4861 16.0646 47.4713 16.0646 47.4587 16.0646" fill="white"/>
<path d="M35.5247 22.235H35.5036C35.0083 22.2392 34.572 22.6093 34.4919 23.1062C34.397 23.7025 34.8207 24.2481 35.4109 24.3073C35.4446 24.3116 35.4804 24.3115 35.5141 24.3115C35.6638 24.3115 35.8071 24.2777 35.9378 24.2185C36.4626 23.9796 37.0275 23.8442 37.6008 23.8442C37.7167 23.8442 37.8326 23.8506 37.9486 23.8611L40.7708 24.1403C41.6245 24.2249 42.4149 24.5991 43.0556 25.1701C43.2706 25.3625 43.5467 25.4894 43.8544 25.5211C43.8987 25.5253 43.9409 25.5274 43.9851 25.5274H44.0041C44.7523 25.5232 45.3826 24.9269 45.4057 24.1487C45.4057 24.1382 45.4057 24.1255 45.4057 24.1149V24.098C45.4015 23.4298 44.9167 22.8419 44.257 22.7193C44.1685 22.7023 44.0779 22.6939 43.9915 22.6939C43.7343 22.6939 43.4898 22.7637 43.2811 22.8863C42.6467 23.2585 41.9343 23.4678 41.2092 23.4678C41.087 23.4678 40.9647 23.4615 40.8425 23.4509L37.9886 23.1697C37.312 23.102 36.6755 22.8356 36.1254 22.4338C35.9694 22.3196 35.7776 22.2477 35.5668 22.2371C35.5542 22.2371 35.5415 22.2371 35.5268 22.2371" fill="white"/>
<path d="M21.1836 58.5723C21.1499 58.5723 21.1162 58.5744 21.0825 58.5786C20.9539 58.5956 20.838 58.6463 20.7431 58.7224C20.3637 59.0164 19.9232 59.2236 19.449 59.2891L17.5078 59.5619C17.3876 59.5788 17.2675 59.5873 17.1473 59.5873C16.6815 59.5873 16.222 59.4647 15.8068 59.2426C15.6698 59.1686 15.5117 59.1284 15.3473 59.1284C15.3031 59.1284 15.2567 59.1305 15.2124 59.1369C14.7276 59.2046 14.3757 59.619 14.3714 60.0969V60.1117C14.3714 60.1773 14.3799 60.2449 14.3925 60.3105C14.4832 60.744 14.8583 61.0612 15.2925 61.0844C15.3073 61.0844 15.322 61.0844 15.3389 61.0844H15.3558C15.3705 61.0844 15.3832 61.0844 15.3979 61.0844C15.4928 61.0802 15.5834 61.0612 15.6677 61.0316C15.8047 60.985 15.927 60.9089 16.026 60.8117C16.4518 60.3993 16.9871 60.1181 17.5731 60.0356L19.5354 59.7607C19.6471 59.7459 19.7567 59.7374 19.8684 59.7374C20.2225 59.7374 20.5745 59.8136 20.9075 59.951C20.9918 59.987 21.0846 60.006 21.1794 60.006C21.2237 60.006 21.268 60.0018 21.3143 59.9933C21.6684 59.9256 21.9214 59.5958 21.8939 59.2342C21.8644 58.8514 21.5483 58.5702 21.1815 58.5702L21.1836 58.5723Z" fill="white"/>
<path d="M23.6918 63.6029C23.637 63.3428 23.4115 63.1694 23.1628 63.1652H23.1481C23.1017 63.1652 23.0553 63.1715 23.0089 63.1842C22.9141 63.2117 22.8319 63.2604 22.7644 63.328C22.5073 63.5924 22.1932 63.7911 21.8391 63.8905L20.3911 64.2944C20.212 64.343 20.0307 64.3684 19.8473 64.3684C19.5818 64.3684 19.3183 64.3177 19.0654 64.2246C18.9832 64.1929 18.8946 64.1781 18.8061 64.1781C18.7408 64.1781 18.6733 64.1866 18.6059 64.2056C18.1907 64.3219 17.9567 64.766 18.1 65.1804C18.2075 65.4828 18.4942 65.6795 18.8061 65.6795C18.8504 65.6795 18.8967 65.6752 18.941 65.6668C19.1286 65.6329 19.2846 65.5314 19.3921 65.3961C19.6745 65.0387 20.0539 64.7723 20.4902 64.6497L21.953 64.2415C22.1195 64.195 22.2902 64.1739 22.4609 64.1739C22.6464 64.1739 22.834 64.1992 23.0153 64.2479C23.0595 64.2606 23.108 64.2669 23.1544 64.2669C23.2113 64.2669 23.2703 64.2584 23.3272 64.2394C23.5527 64.1654 23.7024 63.9497 23.7024 63.7192V63.715C23.7024 63.679 23.6982 63.641 23.6897 63.605L23.6918 63.6029Z" fill="white"/>
<path d="M22.7497 67.3817C22.7286 67.3817 22.7075 67.3796 22.6865 67.3796C22.2881 67.3796 21.9487 67.682 21.9045 68.0816L21.9003 68.1324C21.8813 68.5511 22.1932 68.9148 22.6106 68.955H22.6401C22.6548 68.9592 22.6717 68.9592 22.6865 68.9592C23.0954 68.9592 23.441 68.6441 23.4726 68.2297C23.5064 67.7941 23.1839 67.4156 22.7497 67.3796V67.3817Z" fill="white"/>
<path d="M27.4162 3.60116L27.393 3.59482C27.216 3.54195 27.0389 3.51869 26.8619 3.51869C25.9556 3.51869 25.0914 4.16999 24.7773 5.16597L24.7584 5.23152C24.5961 5.80458 24.6424 6.38186 24.8553 6.8661L19.5501 15.7495C19.449 15.7284 19.3457 15.7136 19.2403 15.703L19.1349 15.6946C19.0717 15.6903 19.0085 15.6882 18.9452 15.6882C17.3771 15.6882 16.0492 16.8872 15.8995 18.471L15.8911 18.5704C15.7899 20.224 17.0145 21.662 18.6565 21.8184L18.7597 21.8269C18.7935 21.8269 18.8251 21.8311 18.8588 21.8311L17.0251 18.7417L21.8602 26.8892C21.7127 27.1303 21.6178 27.4094 21.5925 27.7118C21.5146 28.7268 22.2691 29.615 23.2829 29.6932C23.3314 29.6974 23.3799 29.6995 23.4284 29.6995C24.3621 29.6995 25.1546 28.9933 25.2537 28.0523L25.2621 27.9465C25.3106 26.9527 24.5644 26.0963 23.5696 26.018C23.5633 26.018 23.557 26.018 23.5506 26.018L18.6565 17.7711C18.627 17.7203 18.5911 17.6759 18.5553 17.6336C18.5932 17.6759 18.627 17.7203 18.6565 17.7711L20.7284 21.2623C21.4218 20.7633 21.9066 19.9787 21.9951 19.0652L22.0057 18.9405C22.0562 18.0798 21.7443 17.2763 21.2026 16.6842L26.356 8.05239C26.4467 8.06508 26.5394 8.07354 26.63 8.07354C27.5364 8.07354 28.4005 7.42013 28.7125 6.42415L28.7314 6.36283C29.075 5.16385 28.4891 3.93738 27.4141 3.60328L27.4162 3.60116ZM17.8787 17.3038C17.8239 17.3038 17.7712 17.3038 17.7164 17.3101C17.7586 17.3038 17.8007 17.3017 17.8429 17.3017C17.8555 17.3017 17.8661 17.3017 17.8787 17.3038ZM17.7059 17.3122C17.6553 17.3207 17.6047 17.3334 17.5541 17.3482C17.6047 17.3313 17.6553 17.3186 17.7059 17.3122ZM18.0789 17.3313C18.1316 17.3439 18.1822 17.363 18.2307 17.3862C18.1822 17.3651 18.1316 17.3461 18.0789 17.3313ZM18.2665 17.4032C18.3129 17.4264 18.3593 17.4539 18.4035 17.4835C18.3614 17.4518 18.315 17.4264 18.2665 17.4032ZM26.1705 5.78977C26.1157 5.78131 26.0609 5.78131 26.0082 5.78343C26.0188 5.78343 26.0314 5.78131 26.042 5.78131C26.0841 5.78131 26.1284 5.78554 26.1705 5.78977ZM26.5268 5.91665C26.4762 5.88704 26.4235 5.86378 26.3708 5.84264C26.4235 5.86167 26.4762 5.88493 26.5268 5.91665ZM26.3307 5.82784C26.2823 5.81092 26.2317 5.79823 26.1832 5.79189C26.2338 5.80035 26.2823 5.81303 26.3307 5.82784ZM25.9682 5.78554C25.9176 5.78977 25.8691 5.79612 25.8207 5.8088C25.8691 5.79612 25.9197 5.78977 25.9682 5.78554ZM25.8059 5.81092C25.7532 5.82361 25.7047 5.84264 25.6541 5.86378C25.7026 5.84264 25.7532 5.82361 25.8059 5.81092ZM25.3296 6.10485C25.2916 6.14714 25.2579 6.19155 25.2263 6.2423C25.2558 6.19155 25.2916 6.14714 25.3296 6.10485Z" fill="white"/>
<path d="M43.5615 12.51C43.4624 12.0744 43.083 11.7593 42.6467 11.7339C42.6299 11.7339 42.613 11.7339 42.5961 11.7339H42.5835C42.5624 11.7339 42.5413 11.7339 42.5181 11.736C42.4128 11.7424 42.3137 11.7656 42.2209 11.8016C42.0903 11.8523 41.9743 11.9285 41.8795 12.0257C41.4495 12.4571 40.9078 12.7531 40.3071 12.8483L38.3006 13.1655C38.172 13.1866 38.0434 13.1951 37.9148 13.1951C37.5671 13.1951 37.2193 13.1232 36.8926 12.9942C36.8104 12.9604 36.7198 12.9435 36.627 12.9435C36.5764 12.9435 36.528 12.9477 36.4753 12.9604C36.138 13.0323 35.8935 13.3368 35.8935 13.6772V13.6836C35.8935 13.7047 35.8935 13.7259 35.8956 13.747C35.9336 14.134 36.2561 14.4152 36.6249 14.4152C36.6628 14.4152 36.7008 14.4131 36.7387 14.4068C36.8715 14.3856 36.9874 14.3306 37.0844 14.2524C37.468 13.9437 37.9127 13.7259 38.3975 13.6476L40.383 13.3347C40.5221 13.3135 40.6612 13.3029 40.8003 13.3029C41.2598 13.3029 41.7151 13.4214 42.1303 13.6328C42.2673 13.7026 42.4212 13.7428 42.5814 13.7428C42.6341 13.7428 42.6868 13.7386 42.7395 13.7301C43.2284 13.6519 43.5804 13.231 43.5847 12.7489V12.7299C43.5847 12.658 43.5762 12.5861 43.5594 12.5121L43.5615 12.51Z" fill="white"/>
<path d="M37.9675 9.57068C38.0687 9.55587 38.172 9.54742 38.2753 9.54742C38.6209 9.54742 38.9645 9.63623 39.2764 9.79482C39.3797 9.84769 39.4935 9.87729 39.6158 9.87729C39.6537 9.87729 39.6938 9.87518 39.7317 9.86883C40.0985 9.81174 40.3619 9.49667 40.364 9.13507V9.1245C40.364 9.06952 40.3577 9.01454 40.3451 8.95956C40.2692 8.61911 39.9615 8.37593 39.6179 8.37593C39.601 8.37593 39.5842 8.37593 39.5673 8.37593C39.3776 8.38862 39.2111 8.46897 39.0889 8.59162C38.7664 8.91304 38.3596 9.13507 37.9127 9.20485L36.4099 9.43957C36.3151 9.45437 36.2223 9.46072 36.1275 9.46072C35.8661 9.46072 35.6048 9.40574 35.3582 9.30847C35.297 9.28309 35.2296 9.2704 35.16 9.2704C35.1221 9.2704 35.0842 9.27463 35.0462 9.28309C34.7764 9.33807 34.5867 9.59394 34.612 9.87095C34.6394 10.1606 34.8797 10.3721 35.1579 10.3721C35.1853 10.3721 35.2148 10.37 35.2422 10.3658C35.3392 10.351 35.4298 10.3087 35.4994 10.2516C35.786 10.0211 36.1212 9.85826 36.4837 9.80117L37.9696 9.56856L37.9675 9.57068Z" fill="white"/>
<path d="M35.9842 6.49394H35.9863C36.0073 6.49394 36.0263 6.49605 36.0474 6.49605C36.4542 6.49605 36.7977 6.18097 36.8315 5.76651C36.8652 5.33302 36.5448 4.95451 36.1127 4.91856H36.1022C36.0832 4.91644 36.0643 4.91644 36.0453 4.91644C35.6448 4.91644 35.3055 5.21883 35.2633 5.62272L35.2591 5.66713C35.238 6.09216 35.5563 6.46222 35.9842 6.49605V6.49394Z" fill="white"/>
<path d="M16.8122 47.2317C16.1082 47.2317 15.5054 47.7857 15.4717 48.5195C15.4717 48.5385 15.4717 48.5575 15.4717 48.5787V48.5871C15.4717 49.2173 15.9227 49.7734 16.5424 49.9003C16.6351 49.9193 16.7258 49.9278 16.8164 49.9278C17.0525 49.9278 17.278 49.8644 17.474 49.7544C18.0621 49.4203 18.7197 49.2342 19.39 49.2342C19.527 49.2342 19.6661 49.2427 19.8052 49.2575L22.5157 49.5726C23.1586 49.6466 23.7593 49.9109 24.2757 50.3042C24.4232 50.4163 24.6045 50.4882 24.8047 50.5009C24.8258 50.5009 24.8469 50.503 24.8701 50.503C25.338 50.503 25.7532 50.1604 25.8375 49.691C25.9387 49.1243 25.5424 48.5977 24.9818 48.5343C24.9438 48.5301 24.9059 48.5279 24.868 48.5279C24.731 48.5279 24.6003 48.5575 24.4801 48.6083C23.9954 48.8176 23.4769 48.9382 22.952 48.9382C22.8214 48.9382 22.6928 48.9318 22.5621 48.9149L19.8811 48.6041C19.0717 48.511 18.3256 48.141 17.7248 47.5869C17.5225 47.4009 17.2633 47.2761 16.9703 47.2423C16.9176 47.2359 16.8649 47.2338 16.8143 47.2338" fill="white"/>
<path d="M14.0511 53.6453C13.2944 53.6453 12.6768 54.2564 12.6705 55.0219V55.043C12.6705 55.0642 12.6705 55.0832 12.6705 55.1043C12.7042 55.7789 13.2312 56.3372 13.8993 56.4091C13.9457 56.4133 13.9921 56.4154 14.0363 56.4175H14.0574C14.3483 56.4175 14.618 56.3245 14.8394 56.168C15.5075 55.6985 16.2895 55.4279 17.1031 55.4279C17.1263 55.4279 17.1515 55.4279 17.1747 55.4279L19.978 55.4786C20.6441 55.4913 21.2848 55.7028 21.8518 56.0517C22.0057 56.1468 22.1869 56.1997 22.3829 56.1997C22.3914 56.1997 22.4019 56.1997 22.4103 56.1997C22.9204 56.1828 23.3441 55.7768 23.3862 55.2672C23.3883 55.2397 23.3904 55.2143 23.3904 55.1868V55.1784C23.3883 54.6307 22.9478 54.1803 22.3977 54.1697C22.3914 54.1697 22.3851 54.1697 22.3787 54.1697C22.2017 54.1697 22.0373 54.2141 21.8918 54.2945C21.3164 54.6138 20.6778 54.7998 20.0223 54.7998C20.0012 54.7998 19.9822 54.7998 19.9612 54.7998L17.1874 54.747C16.3506 54.7301 15.5518 54.4277 14.8815 53.9202C14.656 53.7489 14.3778 53.6474 14.0764 53.641C14.0679 53.641 14.0595 53.641 14.0511 53.641" fill="white"/>
<path d="M51.5962 35.7981C51.75 34.5864 51.2969 33.4424 50.4812 32.7065C50.302 32.8799 50.0659 32.9729 49.8236 32.9729C49.6528 32.9729 49.48 32.9264 49.324 32.8292C49.0079 32.6304 48.8498 32.2751 48.8856 31.9262C48.8456 31.9199 48.8076 31.9135 48.7676 31.9072C48.6242 31.8882 48.4809 31.8776 48.3418 31.8776C46.6999 31.8776 45.2582 33.1569 45.0116 34.912L45.0053 34.9564C44.9947 35.0305 44.9884 35.1045 44.9842 35.1785L13.2586 36.6502L12.9171 36.665C12.523 36.0159 11.8148 35.5802 11.0012 35.5697C11.0012 35.5697 10.9843 35.5697 10.9759 35.5697C9.79765 35.5697 8.82388 36.4705 8.71639 37.6251C8.71217 37.6483 8.71006 37.6716 8.70796 37.6948V37.8027C8.70796 37.8069 8.70796 37.809 8.70796 37.8133V37.8661C8.71217 38.2066 8.79016 38.528 8.92927 38.8177L2.95805 50.2302C2.75782 50.2302 2.55548 50.2556 2.35313 50.3021L2.28358 50.319C0.641652 50.7356 -0.332122 52.5372 0.104179 54.3579C0.483572 55.946 1.81566 57.0307 3.24471 57.0307C3.28475 57.0307 3.32269 57.0307 3.36274 57.0286L10.7862 70.4775L9.27494 67.7412C9.10632 68.0584 9.00936 68.42 9.00515 68.8048C8.99039 70.0757 9.99578 71.1224 11.2625 71.1626H11.3574C12.6241 71.152 13.6548 70.1307 13.6675 68.8598C13.6822 67.5889 12.6768 66.5443 11.4122 66.502H11.311C11.1319 66.502 10.9569 66.5253 10.7904 66.5655L12.4429 69.5576L3.96555 54.2014L5.13324 56.316C6.01638 55.5357 6.44214 54.2268 6.12387 52.9073C5.91521 52.0361 5.41989 51.315 4.77914 50.8434L5.11216 50.2069L5.33136 49.7904L10.3984 40.1055L10.4258 40.0526L10.43 40.0463C10.5944 40.0865 10.7672 40.1097 10.9464 40.1118H10.9548C10.9548 40.1118 10.9696 40.1118 10.9759 40.1118C11.9749 40.1118 12.8265 39.4648 13.13 38.5639L13.2396 38.5597L45.3699 37.0689C45.8378 37.9845 46.6915 38.6633 47.739 38.8388L47.9413 38.8663C48.0509 38.8769 48.1605 38.8833 48.268 38.8833C49.773 38.8833 51.1093 37.809 51.5097 36.276C51.4992 36.2992 51.4844 36.3225 51.4718 36.3436C51.5582 36.1914 51.6067 36.0137 51.5983 35.8255C51.5962 35.76 51.5856 35.6966 51.5709 35.6373C51.5856 35.6966 51.5962 35.76 51.5983 35.8234L51.6025 35.7981H51.5962ZM2.83159 53.7616C2.7789 53.7806 2.7262 53.8018 2.67351 53.8292C2.72409 53.8018 2.77679 53.7785 2.83159 53.7616ZM3.13089 53.7087C3.14986 53.7087 3.17093 53.7108 3.1899 53.7129C3.14353 53.7108 3.09506 53.7108 3.04869 53.7129C3.07609 53.7108 3.10349 53.7087 3.13089 53.7087ZM3.0255 53.7172C2.97281 53.7235 2.91801 53.7341 2.86742 53.751C2.92011 53.7362 2.97281 53.7235 3.0255 53.7172ZM3.5419 53.8039C3.49974 53.7827 3.45759 53.7658 3.41332 53.7531C3.45759 53.7679 3.49974 53.7848 3.5419 53.8039ZM3.38803 53.7447C3.33745 53.7299 3.28475 53.7214 3.22995 53.7151C3.28264 53.7214 3.33534 53.7299 3.38803 53.7447ZM3.72738 53.9202C3.76532 53.9519 3.80115 53.9857 3.83487 54.0238C3.80115 53.9857 3.76532 53.9498 3.72738 53.9202ZM3.57773 53.8229C3.62621 53.8483 3.67047 53.8758 3.71473 53.9096C3.67258 53.8758 3.62621 53.8483 3.57773 53.8229ZM51.3622 35.2504C51.339 35.2229 51.3179 35.1975 51.2926 35.1721C51.3179 35.1954 51.339 35.2229 51.3622 35.2504ZM50.6498 34.9184C50.6772 34.9184 50.7025 34.9247 50.7278 34.9268C50.6856 34.9226 50.6456 34.9184 50.6013 34.9205C50.6182 34.9205 50.6329 34.9205 50.6498 34.9205V34.9184ZM51.2315 35.1256C51.2041 35.1045 51.1788 35.0833 51.1514 35.0643C51.1809 35.0833 51.2062 35.1045 51.2315 35.1256ZM51.0798 35.0262C51.0503 35.0114 51.0207 34.9945 50.9891 34.9818C51.0207 34.9945 51.0503 35.0093 51.0798 35.0262ZM50.909 34.9586C50.8774 34.9501 50.8458 34.9395 50.8121 34.9332C50.8458 34.9395 50.8774 34.948 50.909 34.9586ZM50.6898 36.8194C50.7489 36.8173 50.8037 36.8067 50.8585 36.794C50.8037 36.8067 50.7467 36.8173 50.6898 36.8194ZM51.0608 36.7242C51.1093 36.701 51.1556 36.6714 51.1999 36.6397C51.1556 36.6714 51.1114 36.6989 51.0608 36.7242ZM51.3538 36.5022C51.3896 36.462 51.4212 36.4197 51.4507 36.3732C51.4233 36.4197 51.3896 36.462 51.3538 36.5022ZM51.4107 35.3075C51.4318 35.3371 51.4507 35.3709 51.4676 35.4026C51.4486 35.3709 51.4318 35.3371 51.4107 35.3075Z" fill="white"/>
<path d="M28.9022 42.7974C28.8579 42.791 28.8136 42.7889 28.7694 42.7889C28.6387 42.7889 28.5122 42.8143 28.3963 42.8629C27.9221 43.0575 27.4204 43.1674 26.9125 43.1674C26.7607 43.1674 26.6068 43.1569 26.4551 43.1378L23.7572 42.772C22.9436 42.662 22.1975 42.2751 21.6031 41.7041C21.4028 41.5117 21.1436 41.3806 20.8506 41.3404C20.7916 41.332 20.7326 41.3277 20.6736 41.3277H20.663C19.9654 41.3298 19.3626 41.8712 19.3162 42.6028C19.3162 42.6303 19.3141 42.6599 19.3141 42.6874C19.3141 43.3155 19.7525 43.8758 20.3701 44.0154C20.4712 44.0386 20.5724 44.0492 20.6715 44.0492C20.8991 44.0492 21.1183 43.99 21.3122 43.8864C21.8918 43.5734 22.5347 43.4 23.1881 43.4C23.3504 43.4 23.5106 43.4106 23.6729 43.4318L26.4003 43.8018C27.0474 43.8906 27.6481 44.1698 28.1624 44.5736C28.3099 44.6899 28.4912 44.7661 28.6914 44.783C28.7188 44.7851 28.7462 44.7872 28.7757 44.7872C29.2415 44.7872 29.6567 44.451 29.7495 43.9879C29.8633 43.4191 29.4734 42.882 28.9085 42.8037L28.9022 42.7974Z" fill="white"/>
</svg>
